<svg xmlns="http://www.w3.org/2000/svg" width="146" height="13" viewBox="0 0 146 13">
  <path fill="#222221" fill-rule="evenodd" d="M9.16639848 2.00734511C8.73439848 1.34834511 8.24439848.884345106 7.55939848.495345106 5.89239848-.451654894 3.64239848.0393451062 2.27239848 1.28934511 1.66739848 1.84134511 1.13139848 2.53434511.864398476 3.31634511.850398476 3.36134511.839398476 3.40934511.824398476 3.45534511.0303984756 4.70234511-.312601524 6.22034511.352398476 7.61534511.482398476 7.88734511.688398476 8.12434511.874398476 8.35734511 1.21839848 8.78634511 1.68439848 8.95334511 2.20139848 9.10634511 2.75239848 9.27034511 3.35639848 9.31534511 3.92739848 9.27434511 5.33639848 9.17334511 6.71839848 8.60234511 7.78839848 7.67834511 8.39839848 7.15134511 8.82239848 6.56834511 9.21239848 5.87534511 9.49639848 5.37134511 9.70439848 4.77134511 9.71139848 4.19234511 9.72039848 3.42534511 9.60039848 2.66534511 9.16639848 2.00734511M49.9463985 6.99134511C49.6803985 6.13734511 48.9383985 5.44934511 48.2153985 4.96634511 47.9453985 4.78634511 47.6523985 4.62634511 47.3503985 4.50734511 47.2283985 4.45934511 47.1043985 4.41434511 46.9803985 4.37234511 46.7823985 4.11134511 46.5563985 3.87334511 46.3333985 3.68534511 45.8823985 3.30634511 45.3493985 2.91834511 44.7633985 2.79534511 44.3653985 2.71134511 43.9473985 2.66934511 43.6273985 2.97734511L41.3843985 5.14034511C41.2843985 5.23634511 41.1773985 5.32834511 41.0843985 5.42934511 40.9023985 5.62834511 40.8563985 5.81734511 40.8513985 6.07934511 40.8463985 6.31534511 40.8483985 6.54234511 40.8973985 6.77334511 41.0313985 7.41234511 41.2763985 8.00734511 41.6283985 8.55734511 42.0193985 9.17034511 42.5263985 9.75434511 43.0873985 10.2163451 43.3643985 10.4453451 43.6573985 10.6673451 43.9633985 10.8643451 44.0653985 10.9423451 44.1663985 11.0193451 44.2703985 11.0843451L44.8023985 11.3843451C45.0833985 11.5223451 45.3813985 11.5983451 45.6923985 11.6253451 46.5073985 11.8413451 47.3743985 11.8833451 48.1543985 11.5083451 48.9843985 11.1103451 49.5113985 10.4893451 49.8893985 9.67134511 50.2853985 8.81634511 50.2223985 7.87034511 49.9463985 6.99134511M84.4353985 5.56934511C84.1623985 4.77934511 83.4443985 4.21734511 82.7043985 3.88634511 82.2663985 3.69034511 81.8033985 3.56534511 81.3323985 3.47434511 80.7293985 3.26834511 80.1033985 3.16834511 79.4643985 3.11534511 78.3973985 3.02734511 77.2643985 3.13734511 76.3483985 3.72734511 75.8553985 4.04634511 75.5073985 4.56334511 75.2633985 5.08734511 74.7883985 6.10334511 74.7653985 7.41134511 75.3173985 8.40534511 75.7583985 9.19934511 76.5763985 9.64234511 77.3953985 9.95434511 78.8543985 10.5113451 80.6233985 10.6883451 82.1393985 10.2663451 83.3753985 9.92234511 84.2343985 8.79134511 84.5323985 7.57934511 84.6973985 6.90634511 84.6613985 6.22434511 84.4353985 5.56934511M115.717398 7.78834511C115.627398 7.55934511 115.497398 7.35034511 115.347398 7.15234511 115.337398 6.73134511 115.197398 6.29834511 114.897398 6.01134511 114.397398 5.54534511 113.905398 5.13434511 113.252398 4.89034511 112.613398 4.65234511 111.942398 4.49134511 111.253398 4.52434511 110.547398 4.55734511 110.000398 4.69134511 109.348398 4.95034511 108.928398 5.11634511 108.546398 5.37934511 108.183398 5.64034511 107.946398 5.81034511 107.735398 6.01034511 107.544398 6.22934511 107.248398 6.56734511 106.951398 6.90834511 106.745398 7.31034511 106.358398 8.06934511 106.113398 8.94634511 106.270398 9.80334511 106.386398 10.4403451 106.630398 10.9173451 106.999398 11.4343451 107.080398 11.5483451 107.167398 11.6523451 107.267398 11.7513451 107.607398 12.0903451 107.967398 12.3643451 108.422398 12.5253451 108.705398 12.6263451 108.993398 12.7223451 109.287398 12.7923451 110.565398 13.0973451 111.982398 12.9053451 113.159398 12.3403451 114.092398 11.8903451 115.007398 11.1133451 115.467398 10.1703451 115.617398 9.87334511 115.737398 9.56034511 115.827398 9.24334511 115.847398 9.15834511 115.877398 9.07134511 115.887398 8.98434511 115.967398 8.51434511 115.887398 8.22634511 115.717398 7.78834511M144.457398 4.91834511C144.447398 4.90034511 144.427398 4.88434511 144.407398 4.86634511 144.297398 4.70134511 144.167398 4.54634511 144.007398 4.41134511 143.267398 3.56834511 142.157398 3.10734511 141.057398 3.00434511 140.617398 2.96234511 140.147398 3.03034511 139.727398 3.12934511 139.297398 3.22934511 138.887398 3.43434511 138.497398 3.63634511 137.817398 3.98634511 137.227398 4.53834511 136.757398 5.13634511 136.187398 5.86634511 135.887398 6.72334511 135.767398 7.63234511 135.627398 8.75134511 136.037398 9.97034511 136.687398 10.8693451 137.347398 11.7853451 138.357398 12.6003451 139.487398 12.8263451 140.367398 13.0023451 141.287398 12.9893451 142.127398 12.6213451 142.537398 12.4363451 142.957398 12.2383451 143.337398 11.9663451 143.707398 11.6923451 144.037398 11.3553451 144.347398 11.0133451 145.007398 10.2723451 145.367398 9.33034511 145.497398 8.35634511 145.657398 7.18134511 145.217398 5.81534511 144.457398 4.91834511"/>
</svg>
